# xmcd
#
# Track frame offsets:
#	150
#	11237
#	25550
#	41307
#	53690
#	63605
#	76992
#	97985
#	110420
#	123072
#	138237
#	147355
#	156982
#	167955
#	178320
#	195435
#	209332
#	225067
#	237370
#	249182
#	260515
#	274315
#	285182
#	296905
#
# Disc length: 4161 seconds
#
# Revision: 0
# Processed by: cddbd v1.4PL0 Copyright (c) Steve Scherf et al.
# Submitted via: EasyCDDAExtractor 4.6.0.1
#
DISCID=4b103f18
DTITLE=Carlos And The Bandidos - For A Few Dollars Less
DYEAR=1999
DGENRE=Rockabilly
TTITLE0=Big Daddy and Skinny Jim
TTITLE1=One More Time
TTITLE2=What Have I Got Of My Own?
TTITLE3=Avenging Angel
TTITLE4=Gotta Get Some Money
TTITLE5=Fever
TTITLE6=Summertime
TTITLE7=The Pleasure's All Mine
TTITLE8=Unchain My Heart
TTITLE9=When My Baby Kisses Me
TTITLE10=Adelita
TTITLE11=Don't Go Too Far
TTITLE12=Bugger Burns
TTITLE13=You're A Cheater
TTITLE14=Thinkin' About You
TTITLE15=Kiss You Goodnight
TTITLE16=The Gallows
TTITLE17=Devilene
TTITLE18=I'm So Lonely
TTITLE19=Atom Bomb Baby
TTITLE20=Stone Killer
TTITLE21=Had A Dream Last Night
TTITLE22=Tacos and Tequila
TTITLE23=Train Southbound
EXTD=
EXTT0=
EXTT1=
EXTT2=
EXTT3=
EXTT4=
EXTT5=
EXTT6=
EXTT7=
EXTT8=
EXTT9=
EXTT10=
EXTT11=
EXTT12=
EXTT13=
EXTT14=
EXTT15=
EXTT16=
EXTT17=
EXTT18=
EXTT19=
EXTT20=
EXTT21=
EXTT22=
EXTT23=
PLAYORDER=
